<?xml version="1.0" encoding="utf-8"?>
<!-- Generator: Adobe Illustrator 28.0.0, SVG Export Plug-In . SVG Version: 6.00 Build 0)  -->
<svg version="1.1" id="Layer_1" xmlns="http://www.w3.org/2000/svg" xmlns:xlink="http://www.w3.org/1999/xlink" x="0px" y="0px"
	 viewBox="0 0 771 285" style="enable-background:new 0 0 771 285;" xml:space="preserve">
<style type="text/css">
	.st0{fill:#FFFFFF;}
	.st1{fill:#DAE8FC;stroke:#6C8EBF;}
	.st2{fill:#E1D5E7;stroke:#9673A6;}
	.st3{fill:#FFFFFF;stroke:#000000;}
	.st4{fill:none;stroke:#000000;stroke-miterlimit:10;}
	.st5{fill:none;}
	.st6{font-family:'Helvetica';}
	.st7{font-size:12px;}
	.st8{stroke:#000000;stroke-miterlimit:10;}
</style>
<rect y="0" class="st0" width="771" height="285"/>
<g>
	<path pointer-events="all" class="st1" d="M307,164.5h417c9.1,0,16.5,7.4,16.5,16.5v77c0,9.1-7.4,16.5-16.5,16.5H307
		c-9.1,0-16.5-7.4-16.5-16.5v-77C290.5,171.9,297.9,164.5,307,164.5z"/>
	<path pointer-events="all" class="st2" d="M25.5,54.5h700c8.3,0,15,6.7,15,15v70c0,8.3-6.7,15-15,15h-700c-8.3,0-15-6.7-15-15v-70
		C10.5,61.2,17.2,54.5,25.5,54.5z"/>
	<ellipse pointer-events="all" class="st3" cx="55.5" cy="109.5" rx="25" ry="25"/>
	<ellipse pointer-events="all" class="st3" cx="215.5" cy="109.5" rx="25" ry="25"/>
	<ellipse pointer-events="all" class="st3" cx="375.5" cy="109.5" rx="25" ry="25"/>
	<path pointer-events="stroke" class="st4" d="M80.5,114.5h110"/>
	<path pointer-events="stroke" class="st4" d="M240.5,114.5h110"/>
	<rect x="20.5" y="54.5" pointer-events="all" class="st5" width="40" height="20"/>
	<g transform="translate(-0.5 -0.5)">
		<text transform="matrix(1 0 0 1 22.1631 68.5)" class="st6 st7">main</text>
	</g>
	<path pointer-events="stroke" class="st4" d="M300.5,114.5v70c0,6.7,3.3,10,10,10h110c6.7,0,13.3,0,20,0h40"/>
	<ellipse pointer-events="all" class="st3" cx="505.5" cy="194.5" rx="25" ry="25"/>
	<ellipse pointer-events="all" class="st3" cx="635.5" cy="194.5" rx="25" ry="25"/>
	<path pointer-events="stroke" class="st4" d="M530.5,194.5h80"/>
	<rect x="390.5" y="199.5" pointer-events="all" class="st5" width="40" height="20"/>
	<g transform="translate(-0.5 -0.5)">
		<text transform="matrix(1 0 0 1 387.8184 213.5)" class="st6 st7">developer</text>
	</g>
	<path pointer-events="stroke" class="st4" d="M400.5,114.5l280,2"/>
	<ellipse pointer-events="all" class="st3" cx="705.5" cy="109.5" rx="25" ry="25"/>
	<path pointer-events="stroke" class="st4" d="M660.5,194.5h40c6.7,0,10-3.3,10-10v-50"/>
	<rect x="720.5" y="14.5" pointer-events="all" class="st5" width="40" height="20"/>
	<g transform="translate(-0.5 -0.5)">
		<text transform="matrix(1 0 0 1 673.2703 28.4393)" class="st6 st7">Merged branch</text>
	</g>
	<path pointer-events="stroke" class="st4" d="M730.5,34.5l-14.9,42"/>
	<path pointer-events="all" class="st8" d="M713.9,81.4l-1-7.8l2.7,2.8l3.9-0.5L713.9,81.4z"/>
</g>
</svg>
